<svg width="18" height="18" viewBox="0 0 18 18" fill="none" xmlns="http://www.w3.org/2000/svg">
<path fill-rule="evenodd" clip-rule="evenodd" d="M11.9024 5.5116C12.0441 5.81356 12.327 6.02501 12.6567 6.07537L15.9464 6.57786C16.751 6.70077 17.0796 7.68216 16.5112 8.26475L14.0685 10.7683C13.8468 10.9955 13.7462 11.3144 13.7973 11.6276L14.365 15.1085C14.4994 15.9324 13.6247 16.5486 12.8941 16.1446L10.0466 14.57C9.74549 14.4035 9.37994 14.4035 9.07882 14.5699L6.23025 16.1448C5.4997 16.5487 4.62508 15.9326 4.75945 15.1087L5.32719 11.6276C5.37828 11.3144 5.27766 10.9955 5.05607 10.7683L2.61384 8.26466C2.04553 7.68205 2.37411 6.70078 3.17866 6.57787L6.46785 6.07537C6.7975 6.025 7.08037 5.81362 7.22206 5.51174L8.6573 2.454C9.01725 1.68714 10.108 1.68722 10.4678 2.45414L11.9024 5.5116Z" fill="#F4A316"/>
</svg>
